<svg xmlns="http://www.w3.org/2000/svg" viewBox="0 0 32 32">    <path d="M 14 4 C 10.147138 4 7 7.1461005 7 11 C 7 13.406629 8.2272425 15.537919 10.087891 16.798828 C 6.5130126 18.324977 4 21.874674 4 26 L 6 26 C 6 21.566849 9.5668485 18 14 18 C 15.377944 18 16.66162 18.361141 17.789062 18.970703 C 17.784965 18.975751 17.781429 18.98127 17.777344 18.986328 C 17.634651 19.163002 17.496672 19.34273 17.369141 19.53125 C 16.504553 20.808661 16 22.347028 16 24 C 16 25.652412 16.505088 27.189642 17.369141 28.466797 C 17.369452 28.467257 17.368829 28.46829 17.369141 28.46875 C 17.800996 29.106807 18.323368 29.68048 18.916016 30.169922 C 19.113691 30.333167 19.318394 30.486865 19.53125 30.630859 C 20.808661 31.495447 22.347028 32 24 32 C 26.753461 32 29.19066 30.596615 30.630859 28.46875 C 30.631171 28.46829 30.630548 28.467257 30.630859 28.466797 C 31.494912 27.189642 32 25.652412 32 24 L 32 23 L 31.931641 23 C 31.528345 19.795053 29.219943 17.175623 26.179688 16.310547 C 25.953372 16.246151 25.724137 16.188936 25.490234 16.144531 C 25.432988 16.133385 25.374125 16.127065 25.316406 16.117188 C 25.137835 16.087359 24.959644 16.056778 24.777344 16.039062 C 24.521958 16.013735 24.262828 16 24 16 C 22.62299 16 21.324793 16.351742 20.191406 16.96875 C 19.884099 17.136025 19.593957 17.328498 19.3125 17.533203 C 18.867884 17.253591 18.399223 17.008627 17.910156 16.800781 C 19.772033 15.540026 21 13.40748 21 11 L 21 10 L 20.796875 10 C 20.290193 6.6375064 17.499348 4 14 4 z M 14 6 C 16.772302 6 19 8.2276983 19 11 C 19 13.771138 16.772101 16 14 16 C 11.229063 16 9 13.770937 9 11 C 9 8.2278995 11.228862 6 14 6 z M 24 18 C 24.623541 18 25.22464 18.094822 25.789062 18.269531 C 26.353485 18.444241 26.880745 18.69874 27.359375 19.021484 C 27.359834 19.021794 27.360869 19.021175 27.361328 19.021484 C 27.679923 19.236437 27.977338 19.481244 28.248047 19.751953 C 28.518756 20.022662 28.763563 20.320077 28.978516 20.638672 C 28.978807 20.639104 28.978224 20.640193 28.978516 20.640625 C 29.30126 21.119255 29.555759 21.646515 29.730469 22.210938 C 29.905178 22.77536 30 23.376459 30 24 C 30 24.623541 29.905178 25.22464 29.730469 25.789062 C 29.555759 26.353485 29.30126 26.880745 28.978516 27.359375 C 28.978206 27.359834 28.978825 27.360869 28.978516 27.361328 C 28.763563 27.679923 28.518756 27.977338 28.248047 28.248047 C 27.977338 28.518756 27.679923 28.763563 27.361328 28.978516 C 27.360896 28.978807 27.359807 28.978224 27.359375 28.978516 C 26.880745 29.30126 26.353485 29.555759 25.789062 29.730469 C 25.22464 29.905178 24.623541 30 24 30 C 23.376459 30 22.77536 29.905178 22.210938 29.730469 C 21.646515 29.555759 21.119255 29.30126 20.640625 28.978516 C 20.640193 28.978224 20.639104 28.978807 20.638672 28.978516 C 20.320077 28.763563 20.022662 28.518756 19.751953 28.248047 C 19.481244 27.977338 19.236437 27.679923 19.021484 27.361328 C 19.021175 27.360869 19.021794 27.359834 19.021484 27.359375 C 18.69874 26.880745 18.444241 26.353485 18.269531 25.789062 C 18.094822 25.22464 18 24.623541 18 24 C 18 23.79207 18.010859 23.587095 18.03125 23.384766 C 18.07205 22.980233 18.153058 22.587219 18.269531 22.210938 C 18.444241 21.646515 18.69874 21.119255 19.021484 20.640625 C 19.021776 20.640193 19.021193 20.639104 19.021484 20.638672 C 19.236437 20.320077 19.481244 20.022662 19.751953 19.751953 C 20.022662 19.481244 20.320077 19.236437 20.638672 19.021484 C 20.639131 19.021175 20.640166 19.021794 20.640625 19.021484 C 21.119255 18.69874 21.646515 18.444241 22.210938 18.269531 C 22.77536 18.094822 23.376459 18 24 18 z M 21.292969 20.390625 C 21.162969 20.390625 20.951437 20.438766 20.773438 20.634766 C 20.595437 20.828766 20.09375 21.298859 20.09375 22.255859 C 20.09375 23.212859 20.790719 24.138578 20.886719 24.267578 C 20.983719 24.394578 22.258938 26.360125 24.210938 27.203125 C 24.673938 27.404125 25.035359 27.524281 25.318359 27.613281 C 25.784359 27.760281 26.208922 27.739406 26.544922 27.691406 C 26.918922 27.635406 27.694422 27.221625 27.857422 26.765625 C 28.018422 26.312625 28.019703 25.922797 27.970703 25.841797 C 27.923703 25.762797 27.794656 25.713281 27.597656 25.613281 C 27.403656 25.517281 26.445578 25.045422 26.267578 24.982422 C 26.089578 24.916422 25.960078 24.885125 25.830078 25.078125 C 25.700078 25.274125 25.329844 25.71375 25.214844 25.84375 C 25.102844 25.97075 24.987922 25.987625 24.794922 25.890625 C 24.599922 25.794625 23.971516 25.587828 23.228516 24.923828 C 22.650516 24.409828 22.258484 23.770172 22.146484 23.576172 C 22.031484 23.381172 22.133469 23.276688 22.230469 23.179688 C 22.319469 23.092688 22.426438 22.953844 22.523438 22.839844 C 22.619438 22.728844 22.654703 22.645625 22.720703 22.515625 C 22.783703 22.385625 22.750172 22.272781 22.701172 22.175781 C 22.653172 22.079781 22.264563 21.118516 22.101562 20.728516 C 21.943562 20.349516 21.783062 20.402531 21.664062 20.394531 C 21.552063 20.389531 21.422969 20.390625 21.292969 20.390625 z" fill="#ffffff"></path></svg>