<svg xmlns="http://www.w3.org/2000/svg" viewBox="0 0 80 80"><path fill="#f78f8f" d="M66.9 13.6H67.9V49.1H66.9z" transform="rotate(-17.536 67.376 31.349)"></path><path fill="#f78f8f" d="M12.1 30.9H13.1V66.4H12.1z" transform="rotate(-17.536 12.62 48.648)"></path><path fill="#f78f8f" d="M73.2 18.5H74.2V40.2H73.2z" transform="rotate(-17.536 73.726 29.34)"></path><path fill="#f78f8f" d="M5.8 39.8H6.8V61.5H5.8z" transform="rotate(-17.536 6.265 50.654)"></path><path fill="#b0c1d4" d="M33.2,77.5c-1.9,0-3.6-1.2-4.2-3.1L11.4,18.5c-0.7-2.3,0.6-4.8,2.9-5.5L46.9,2.7 c0.4-0.1,0.9-0.2,1.3-0.2c1.9,0,3.6,1.2,4.2,3.1L70,61.5c0.4,1.1,0.3,2.3-0.3,3.3c-0.5,1-1.5,1.8-2.6,2.2L34.6,77.3 C34.1,77.4,33.7,77.5,33.2,77.5z"></path><path fill="#66798f" d="M48.2,3L48.2,3c1.7,0,3.2,1.1,3.7,2.7l17.7,55.9c0.3,1,0.2,2-0.3,3c-0.5,0.9-1.3,1.6-2.3,1.9 L34.4,76.8C34,76.9,33.6,77,33.2,77c-1.7,0-3.2-1.1-3.7-2.7L11.9,18.4c-0.3-1-0.2-2,0.3-3s1.3-1.6,2.3-1.9L47,3.2 C47.4,3.1,47.8,3,48.2,3 M48.2,2c-0.5,0-1,0.1-1.5,0.2L14.1,12.5c-2.6,0.8-4,3.6-3.2,6.1l17.7,55.9c0.7,2.1,2.6,3.4,4.7,3.4 c0.5,0,1-0.1,1.5-0.2l32.6-10.3c2.6-0.8,4-3.6,3.2-6.1L52.8,5.4C52.2,3.3,50.3,2,48.2,2L48.2,2z"></path><path fill="#f2faff" d="M18.9 13.7H61.9V64H18.9z" transform="rotate(-17.536 40.347 38.833)"></path><path fill="#66798f" d="M52.9,9l14.9,47l-40,12.6l-14.9-47L52.9,9 M53.6,7.7L11.6,21l15.5,48.9L69,56.7L53.6,7.7L53.6,7.7z"></path><path fill="#66798f" d="M44.3 66.3H54.099999999999994V67.3H44.3z" transform="rotate(-17.513 49.188 66.803)"></path></svg>