<svg xmlns="http://www.w3.org/2000/svg" viewBox="0 0 80 80"><path fill="#bae0bd" d="M61.2,77.5c-1.3,0-2.6-0.3-3.8-0.8c-6.9-3-20.4-9.8-32.3-21.8C13.1,43,6.3,29.6,3.3,22.6 C1.7,19,2.5,14.7,5.4,11.8l7.5-7.5c1.2-1.2,2.8-1.9,4.5-1.9l0,0c1.7,0,3.3,0.7,4.5,1.9l9.8,9.8c2.5,2.5,2.5,6.6,0,9.1l-10,10 l0.1,0.3c0,0.1,3,8,9.9,14.8s14.7,9.9,14.8,9.9l0.3,0.1l10-10c1.2-1.2,2.8-1.9,4.5-1.9s3.3,0.7,4.5,1.9l9.8,9.8 c1.2,1.2,1.9,2.8,1.9,4.5s-0.7,3.3-1.9,4.5l-7.5,7.5C66.3,76.4,63.8,77.5,61.2,77.5z"></path><path fill="#5e9c76" d="M17.4,3c1.6,0,3.1,0.6,4.2,1.7l9.8,9.8c2.3,2.3,2.3,6,0,8.4l-9.8,9.8l-0.5,0.5l0.2,0.6 c0.1,0.3,3,8.1,10,15c7,7,14.7,9.9,15,10l0.6,0.2l0.5-0.5l9.8-9.8c1.1-1.1,2.6-1.7,4.2-1.7c1.6,0,3.1,0.6,4.2,1.7l9.8,9.8 c2.3,2.3,2.3,6,0,8.4l-7.5,7.5C66.1,76,63.7,77,61.2,77c-1.3,0-2.5-0.3-3.6-0.8c-6.9-3-20.3-9.8-32.1-21.7S6.7,29.3,3.8,22.4 c-1.5-3.5-0.7-7.5,2-10.3l7.5-7.5C14.3,3.6,15.8,3,17.4,3 M17.4,2c-1.8,0-3.5,0.7-4.9,2l-7.5,7.5c-3,3-3.9,7.5-2.2,11.4 C6.2,30.5,13,43.5,24.7,55.3s24.8,18.6,32.5,21.9c1.3,0.6,2.7,0.8,4,0.8c2.7,0,5.3-1.1,7.3-3.1l7.5-7.5c2.7-2.7,2.7-7.1,0-9.8 L66.2,48c-1.3-1.3-3.1-2-4.9-2c-1.8,0-3.5,0.7-4.9,2l-9.8,9.8c0,0-7.8-2.9-14.6-9.8c-6.9-6.9-9.8-14.6-9.8-14.6l9.8-9.8 c2.7-2.7,2.7-7.1,0-9.8L22.3,4C20.9,2.7,19.2,2,17.4,2L17.4,2z"></path><path fill="#5e9c76" d="M13.8 3.8H14.8V8.899999999999999H13.8z" transform="rotate(-45.004 14.309 6.305)"></path><path fill="#5e9c76" d="M25.1 9.3H26.1V25.900000000000002H25.1z" transform="rotate(-45.001 25.594 17.59)"></path><path fill="#5e9c76" d="M58.3 47.8H59.3V52.9H58.3z" transform="rotate(-44.992 58.848 50.307)"></path><path fill="#5e9c76" d="M69.6 53.3H70.6V69.9H69.6z" transform="rotate(-45.001 70.131 61.591)"></path></svg>