<svg xmlns="http://www.w3.org/2000/svg" viewBox="0 0 40 40"><path fill="#dff0fe" d="M20,38.5c-10.313,0-17.5-2.635-17.5-5s7.187-5,17.5-5s17.5,2.635,17.5,5S30.313,38.5,20,38.5z"></path><path fill="#4788c7" d="M20,29c10.378,0,17,2.665,17,4.5S30.378,38,20,38S3,35.335,3,33.5S9.622,29,20,29 M20,28 c-9.941,0-18,2.462-18,5.5S10.059,39,20,39s18-2.462,18-5.5S29.941,28,20,28L20,28z"></path><path fill="#98ccfd" d="M20.001,33.203c-1.823-2.301-9.538-12.418-10.403-19.9c-0.069-0.476-0.1-0.889-0.098-1.313 C9.522,6.206,14.232,1.5,20,1.5c5.79,0,10.5,4.705,10.5,10.488c0,0.392-0.027,0.766-0.086,1.177 C29.623,20.724,21.836,30.898,20.001,33.203z"></path><path fill="#4788c7" d="M20,2c5.514,0,10,4.481,10,9.988c0,0.364-0.026,0.716-0.085,1.143 c-0.729,6.962-7.583,16.274-9.913,19.263c-2.315-2.982-9.109-12.241-9.912-19.177c-0.063-0.435-0.092-0.824-0.09-1.225 C10.022,6.482,14.508,2,20,2 M20,1C13.925,1,9.024,5.92,9,11.988c-0.002,0.508,0.04,0.953,0.1,1.373C10.107,22.059,20,34,20,34 s9.992-11.997,10.909-20.765C30.964,12.851,31,12.444,31,11.988C31,5.919,26.075,1,20,1L20,1z"></path><g><path fill="#fff" d="M20 7.5A4.5 4.5 0 1 0 20 16.5A4.5 4.5 0 1 0 20 7.5Z"></path><path fill="#4788c7" d="M20,8c2.209,0,4,1.791,4,4s-1.791,4-4,4s-4-1.791-4-4S17.791,8,20,8 M20,7c-2.757,0-5,2.243-5,5 s2.243,5,5,5s5-2.243,5-5S22.757,7,20,7L20,7z"></path></g></svg>