<?xml version="1.0" encoding="utf-8"?>
<!DOCTYPE svg PUBLIC "-//W3C//DTD SVG 1.1//EN" "http://www.w3.org/Graphics/SVG/1.1/DTD/svg11.dtd">
<svg version="1.1" id="Слой_4" xmlns="http://www.w3.org/2000/svg" xmlns:xlink="http://www.w3.org/1999/xlink" x="0px" y="0px"
	 width="672px" height="94px" viewBox="0 0 672 94" enable-background="new 0 0 672 94" xml:space="preserve">
<g id="Полноцвет">
	<g>
		<g>
			<g>
				<path fill="#0038BA" d="M136.127,87.313V46.11c0-2.053,0.354-4.39,2.266-6.23c2.052-1.98,4.672-2.124,6.442-2.124h36.885v12.036
					h-26.549c-0.708,0-1.629,0.07-2.265,0.707c-0.566,0.567-0.779,1.558-0.779,2.62v3.47h21.594v11.185h-21.594v19.54H136.127z"/>
				<path fill="#0038BA" d="M185.402,87.313V37.756h16v49.558H185.402z"/>
				<path fill="#0038BA" d="M239.916,87.313l-8.993-13.946l-8.99,13.946h-19.115l18.763-25.133l-18.194-24.425h19.112l8.425,13.239
					l8.426-13.239h19.115l-18.195,24.425l18.761,25.133H239.916z"/>
				<path fill="#0038BA" d="M306.537,42.287c5.38,4.955,5.591,13.594,5.591,20.248c0,6.515-0.211,15.223-5.591,20.248
					c-5.239,4.884-14.302,5.096-21.665,5.096s-16.424-0.212-21.664-5.096c-5.379-5.025-5.594-13.733-5.594-20.248
					c0-6.654,0.215-15.293,5.594-20.248c5.311-4.886,14.16-5.097,21.664-5.097S301.227,37.401,306.537,42.287z M275.881,71.951
					c2.125,3.256,4.957,3.609,8.991,3.609c4.177,0,6.798-0.354,8.991-3.609c1.84-2.69,1.84-5.451,1.84-9.416
					c0-4.319,0.071-6.654-1.84-9.416c-2.193-3.257-4.814-3.61-8.991-3.61c-4.104,0-6.866,0.354-8.991,3.61
					c-1.771,2.618-1.84,5.312-1.84,9.416C274.041,66.428,274.253,69.475,275.881,71.951z"/>
				<path fill="#0038BA" d="M369.744,79.03c0,1.771-0.354,8.849-10.761,8.849c-3.753,0-7.646-0.493-10.762-4.883l-17.911-25.275
					c-0.354-0.495-0.851-1.203-1.346-1.203c-0.212,0-0.99,0-0.99,1.415v29.381h-12.318V45.97c0-6.443,5.381-8.779,11.114-8.779
					c2.689,0,7.434,0.282,10.479,4.602l18.052,25.486c0.354,0.495,0.778,1.204,1.344,1.204c0.779,0,0.779-0.85,0.779-1.204V37.756
					h12.319V79.03z"/>
				<path fill="#0038BA" d="M389.5,43.208c1.556-3.682,3.679-6.018,11.323-6.018c4.745,0,8.993,0.494,11.329,6.018l18.336,44.105
					h-16.85l-3.894-10.194h-17.841l-3.892,10.194h-16.852L389.5,43.208z M395.727,65.792h10.197l-4.462-12.53
					c-0.143-0.354-0.425-1.063-0.639-1.063c-0.21,0-0.493,0.708-0.636,1.063L395.727,65.792z"/>
				<path fill="#0038BA" d="M431.906,87.313V37.756h15.999v49.558H431.906z"/>
				<path fill="#0038BA" d="M454.985,47.242c0-2.264,0.141-5.096,1.911-7.077c1.841-2.055,4.743-2.409,6.655-2.409h26.974
					c3.115,0,8.564,0,11.823,4.814c2.123,3.187,2.547,7.576,2.547,11.328c0,2.266-0.142,8.143-1.841,12.177
					c-1.839,4.39-5.379,6.158-9.202,6.158h-2.123v0.283l14.158,14.797h-19.256l-9.559-12.884c-1.628-2.196-3.397-4.319-3.397-6.727
					v-1.062c0-3.328,3.043-5.594,7.149-5.594h2.549c1.416,0,3.327-0.141,4.459-1.487c0.78-0.99,1.063-2.829,1.063-4.104
					c0-2.69-0.85-3.822-1.203-4.178c-1.204-1.274-2.974-1.203-4.461-1.203h-8.85c-0.92,0-1.77,0.071-2.478,0.777
					c-0.991,0.922-0.921,1.913-0.921,3.116v33.345h-15.999V47.242z"/>
			</g>
			<g>
				<g>
					<path fill="#1E8D3E" d="M509.907,85.155c0,1.182,0.958,2.136,2.14,2.136h3.154c1.181,0,2.139-0.954,2.139-2.136v-4.912
						c0-1.179-0.958-2.136-2.139-2.136h-3.154c-1.182,0-2.14,0.957-2.14,2.136V85.155z"/>
				</g>
				<path fill="#1E8D3E" d="M528.554,75.854c-2.656-3.697-2.656-8.91-2.656-12.358c0-4.89,0.231-10.407,3.012-13.996
					c3.172-4.105,8.249-4.578,11.794-4.578h17.688V38.27h-19.184c-8.392,0-13.168,3.816-15.265,6.087
					c-4.698,5.044-5.347,12.149-5.347,19.072c0,8.969,1.619,14.246,5.587,18.212c2.578,2.578,7.242,5.65,14.829,5.65h20.094v-6.649
					h-19.379C534.672,80.642,530.809,78.986,528.554,75.854z"/>
				<path fill="#1E8D3E" d="M583.919,37.75c-4.343,0-12.429,0-17.884,5.457c-5.912,5.91-5.912,15.14-5.912,19.574
					s0,13.665,5.912,19.576c5.457,5.455,13.541,5.455,17.884,5.455c4.345,0,12.43,0,17.887-5.455
					c5.911-5.911,5.911-15.142,5.911-19.576s0-13.664-5.911-19.574C596.349,37.75,588.264,37.75,583.919,37.75z M596.968,77.395
					c-3.373,3.768-8.964,3.768-13.049,3.768c-4.081,0-9.674,0-13.042-3.766c-3.188-3.571-3.452-8.952-3.452-14.615
					c0-5.664,0.264-11.045,3.449-14.613c3.371-3.768,8.964-3.768,13.045-3.768c4.085,0,9.676,0,13.047,3.765
					c3.186,3.571,3.449,8.952,3.449,14.616C600.415,68.444,600.151,73.825,596.968,77.395z"/>
				<path fill="#1E8D3E" d="M660.931,37.75c-4.237,0-5.753,3.623-6.567,5.572l-14.877,35.778l-14.878-35.781
					c-0.815-1.948-2.332-5.569-6.569-5.569c-3.508,0-6.055,2.546-6.055,6.056v43.485h7.042v-39.67l14.216,34.168
					c1.005,2.398,2.521,6.023,6.244,6.023c3.721,0,5.237-3.625,6.242-6.026l14.217-34.167v39.672h7.04V43.806
					C666.985,40.296,664.439,37.75,660.931,37.75z"/>
			</g>
		</g>
	</g>
	<g>
		<g>
			<g>
				<g>
					<polygon fill="#1E8D3E" points="37.354,78.689 37.354,78.69 37.354,78.689 					"/>
					<polygon fill="#1E8D3E" points="10.659,55.098 10.659,55.1 10.659,55.098 					"/>
					<polygon fill="#1E8D3E" points="6.339,59.88 6.339,59.88 6.339,59.88 					"/>
					<polygon fill="#1E8D3E" points="47.455,36.996 47.455,36.996 47.455,36.996 					"/>
					<polygon fill="none" points="60.264,17.941 60.264,17.941 60.264,17.941 					"/>
					<polygon fill="#1E8D3E" points="28.104,30.015 28.104,30.016 28.104,30.015 					"/>
					<polygon fill="#1E8D3E" points="58.471,89.083 58.471,89.083 58.471,89.083 					"/>
					<polygon fill="#1E8D3E" points="47.01,83.563 47.01,83.565 47.01,83.563 					"/>
					<path fill="#1E8D3E" d="M41.088,25.286l20.604,0.097h0.005h0.006c1.147-0.013,2.071-0.958,2.059-2.105
						c-0.012-1.136-0.945-2.062-2.095-2.062l-20.614-0.095c-0.553,0.005-1.076,0.228-1.465,0.626
						c-0.391,0.398-0.603,0.924-0.597,1.479C39.005,24.363,39.939,25.286,41.088,25.286z"/>
					<path fill="#1E8D3E" d="M72.891,80.9l-25.897,0.251c-0.826,0.009-1.491,0.692-1.484,1.519c0.009,0.818,0.683,1.482,1.501,1.482
						l25.914-0.25c0.827-0.009,1.494-0.689,1.485-1.517C74.4,81.565,73.727,80.9,72.891,80.9z M47.01,83.563L47.01,83.563v0.002
						V83.563z"/>
					<path fill="#1E8D3E" d="M32.288,57.235L6.324,57.467c-0.402,0.003-0.777,0.163-1.059,0.45
						c-0.281,0.289-0.433,0.668-0.429,1.067c0.008,0.817,0.681,1.484,1.502,1.484l25.979-0.229c0.827-0.011,1.493-0.69,1.485-1.519
						C33.795,57.901,33.122,57.235,32.288,57.235z M6.339,59.88L6.339,59.88L6.339,59.88L6.339,59.88z"/>
					<path fill="#1E8D3E" d="M10.659,55.688l14.025-0.095c0.399-0.003,0.775-0.162,1.057-0.45c0.282-0.287,0.435-0.666,0.431-1.067
						c-0.011-0.819-0.684-1.483-1.515-1.483l-14.016,0.092c-0.828,0.009-1.493,0.689-1.487,1.519
						C9.165,55.021,9.84,55.688,10.659,55.688z M10.659,55.098L10.659,55.098V55.1V55.098z"/>
					<path fill="#1E8D3E" d="M64.618,86.576l-6.163,0.093c-0.827,0.011-1.493,0.69-1.484,1.519c0.009,0.819,0.682,1.485,1.5,1.485
						l6.182-0.094c0.4-0.004,0.776-0.164,1.056-0.45c0.281-0.288,0.435-0.667,0.43-1.067C66.13,87.244,65.457,86.576,64.618,86.576z
						 M58.471,89.083L58.471,89.083L58.471,89.083L58.471,89.083z"/>
					<path fill="#1E8D3E" d="M54.077,18.449l6.161,0.08h0.025c0.814,0,1.487-0.662,1.502-1.474c0.007-0.4-0.143-0.781-0.421-1.069
						c-0.279-0.29-0.653-0.452-1.057-0.458l-6.189-0.083c-0.813,0-1.486,0.663-1.499,1.476
						C52.584,17.747,53.245,18.434,54.077,18.449z M60.264,17.941L60.264,17.941L60.264,17.941L60.264,17.941z"/>
					<path fill="#1E8D3E" d="M28.104,30.604l18.135-0.231c0.397-0.003,0.774-0.166,1.056-0.452c0.281-0.285,0.432-0.665,0.427-1.063
						c-0.006-0.819-0.681-1.487-1.518-1.487l-18.116,0.231c-0.397,0.005-0.774,0.164-1.055,0.452
						c-0.281,0.286-0.435,0.665-0.429,1.065C26.613,29.938,27.287,30.604,28.104,30.604z M28.104,30.015L28.104,30.015
						L28.104,30.015L28.104,30.015z"/>
					<path fill="#1E8D3E" d="M62.857,77.531c-0.01-0.821-0.683-1.486-1.518-1.486l-24.003,0.23
						c-0.398,0.004-0.774,0.166-1.055,0.452c-0.283,0.287-0.435,0.664-0.43,1.065c0.008,0.819,0.682,1.485,1.501,1.485l24.019-0.229
						C62.201,79.037,62.866,78.357,62.857,77.531z M37.354,78.689L37.354,78.689L37.354,78.689L37.354,78.689z"/>
					<path fill="#1E8D3E" d="M46.381,35.036c-0.281,0.286-0.432,0.665-0.429,1.064c0.009,0.819,0.684,1.485,1.503,1.485
						l18.132-0.229c0.399-0.006,0.774-0.164,1.056-0.453c0.281-0.287,0.435-0.665,0.43-1.063c-0.009-0.82-0.682-1.488-1.519-1.488
						l-18.116,0.231C47.037,34.586,46.662,34.748,46.381,35.036z M47.455,36.996L47.455,36.996L47.455,36.996L47.455,36.996z"/>
				</g>
				<path fill="#191F8F" d="M116.849,25.876c4.104,0,7.436-3.329,7.436-7.436c0,0,6.716,1.021,7.736-0.583
					c0.322-0.507-7.736-2.332-7.736-2.332V7.944l-7.436-2.673l-7.437,3.546l0.165,8.068l0,0c-0.105,0.502-0.165,1.021-0.165,1.555
					C109.412,22.547,112.741,25.876,116.849,25.876z"/>
				<path fill="#191F8F" d="M70.338,32.293c1.604,0.973,1.8,2.624,3.451,2.69c1.651,0.068,2.333-1.913,2.333-1.913
					c0.873,0.096,1.555-0.777,1.555-0.777c1.068-2.039-0.682-2.625-0.682-2.625l-6.657-2.625
					C70.338,27.043,68.732,31.32,70.338,32.293z"/>
				<path fill="#191F8F" d="M41.152,58.681l2.169-0.093l-0.548-5.882l-5.322-0.65l-0.814,19.56c0,0,4.271-1.41,5.723-4.607
					C43.811,63.81,41.152,58.681,41.152,58.681z"/>
			</g>
		</g>
		<path fill="#191F8F" d="M131.302,30.151c-1.401-1.237-1.297-2.894-2.905-3.254c-1.608-0.359-2.629,1.463-2.629,1.463
			c-0.841-0.251-1.663,0.483-1.663,0.483c-1.413,1.812,0.198,2.696,0.198,2.696l6.064,3.762
			C130.367,35.302,132.702,31.392,131.302,30.151L131.302,30.151z"/>
		<path fill="#191F8F" d="M85.221,82.635l1.502-1.722l-5.09-3.679l-5.984,9.822h20.78c0,0,0.715-3.337-2.445-5.298
			c-1.497-0.932-2.635-1.173-4.752-0.572l-0.8,0.243C86.603,82.023,85.221,82.635,85.221,82.635z"/>
		<g>
			<path fill="#0038BA" d="M122.575,31.188c0,0-4.797,10.172-7.56,10.172c-2.094,0-3.813-5.853-4.52-8.679l4.098-4.723l-6.798-6.498
				c-0.822,2.424-1.575,4.271-2.713,5.904l2.763,2.611L92.793,44.915l-8.887-8.893c-1.578,0.427-3.221,0.766-4.935,0.978
				l-0.627,0.324c-2.632,1.357-4.716,3.583-5.898,6.299l-0.595,1.372c-5.016,12.74-28.308,5.251-28.308,5.251l0.969,10.686
				c18.168,3.414,32.322-3.736,39.782-8.918c5.193,3.325,9.995,7.123,9.793,9.693c-0.437,5.523-14.337,12.934-14.337,12.934
				l2.389,1.758l5.196,3.813l1.486,1.091c0.058-0.019,0.186-0.057,0.116-0.035c1.538-1.141,24.781-18.678,12.271-27.759
				c-3.726-2.704-7.146-5.218-10.135-7.429c3.164-0.756,9.876-2.856,14.674-7.769c1.126,4.213,3.559,10.076,8.396,10.17
				c7.557,0.146,15.986-12.208,15.986-12.208L122.575,31.188z"/>
			<path fill="#0038BA" d="M70.252,25.954l8.72,3.78c0,0,4.27-16.427,21.293-6.188c0.752-1.048,1.694-3.1,2.182-5.67
				C93.029,12.261,79.15,6.401,70.252,25.954z"/>
		</g>
		<g>
			<path fill="#1E8D3E" d="M102.616,6.406C98.45,3.717,91.881,3.504,86.571,9.075L83.035,5.54L69.448,19.129l1.979,1.977
				c5.158-8.688,11.868-10.305,18.026-9.147V11.88c3.984-4.207,8.405-3.758,10.982-2.096c2.005,1.295,3.777,3.987,3.18,7.699
				c-0.502,3.201-1.804,6.032-2.901,7.209c-4.047-2.467-7.336-3.431-9.985-3.431c-0.432,0-0.844,0.029-1.242,0.076l4.156,4.077
				l-1.259,1.283l-2.711-2.658l-1.023,1.044l2.316,2.27l-1.184,1.207l-2.315-2.27l-2.396,2.44l-1.854-1.818l5.294-5.398
				c-5.551,1.249-7.659,7.01-8.333,8.956l12.854,12.854l13.124-13.51l-2.408-2.456c1.516-1.912,2.342-4.117,3.52-7.72
				C108.912,13.655,106.264,8.761,102.616,6.406z M97.245,34.623L96.261,39.7l-2.075-2.035l0.703-3.076l-3.064,0.762l-2.063-2.021
				l0,0l-1.746-1.712l5.859-5.977l1.851,1.814l-5.704,5.818l4.854-1.037l0.932-4.699l2.035,1.993l-0.744,2.877l2.831-0.831
				l2.014,1.974L97.245,34.623z"/>
		</g>
	</g>
</g>
</svg>
