<svg xmlns="http://www.w3.org/2000/svg" viewBox="0 0 988.6 279.3"><path d="M250.7 162c1.9 6.3 2.9 12.9 2.9 19.8 0 38.4-31.2 69.7-69.6 69.7-3.8 0-7.6-.3-11.2-.9-13 9.4-29 15-46.3 15-43.8 0-79.3-35.6-79.3-79.6 0-9.4 1.7-18.3 4.6-26.7-14.2-13-23.1-31.8-23.1-52.6C28.7 72 53.4 43 86.3 36.6c16.6-17.5 40.1-28.5 66.1-28.5 46 0 83.9 34.1 90.1 78.5 12 10 19.6 25.2 19.6 42.1-.1 12.5-4.3 24-11.4 33.3z" fill="#35ab4f"/><path d="M250.7 162c4.2-5.5 7.4-11.8 9.3-18.7l-76.5-87.4-11.6 6.5-18.2-17.8h-29.1l1.2 31.2L78 102.3l54.7 53.7-12.6 77.1 29.1 29.1c8.6-2.6 16.6-6.5 23.7-11.7 3.6.6 7.4.9 11.2.9 38.4 0 69.6-31.2 69.6-69.7-.1-6.8-1.1-13.5-3-19.7z" fill="#1e8e3e"/><path d="M156.6 233.1c0-27.1-2.8-41.3-2.8-41.3V105h-31v87s-2.8 14.2-2.8 41.1h36.6zm-2.8-188.5h-31v8.5h31v-8.5zm60.4 46.5l-31-35.2H77.9v46.4h136.2V91.1h.1z" fill="#fff"/><path d="M368.5 179.5c2.9 0 5.3 1.2 7.1 3.7 1.8 2.4 2.2 5 1.2 7.8-2.4 7.1-6.6 12.8-12.8 17.3-6.2 4.6-13.1 6.9-20.8 6.9h-.6c-9.8 0-18.2-3.5-25.2-10.4-6.9-6.9-10.4-15.3-10.4-25.2v-67.2c0-9.8 3.5-18.1 10.4-25.1 6.9-6.9 15.3-10.4 25.2-10.4h.6c7.7 0 14.6 2.3 20.8 6.8 6.1 4.4 10.4 10.2 12.8 17.4.9 2.8.5 5.4-1.2 7.8-1.8 2.4-4.2 3.6-7.1 3.6-4.2 0-6.9-1.9-8.3-5.7-1.2-3.6-3.3-6.6-6.5-8.8-3.1-2.3-6.6-3.4-10.5-3.4h-.6c-5 0-9.3 1.8-12.8 5.3s-5.3 7.7-5.3 12.7v67.2c0 5 1.8 9.3 5.3 12.8s7.8 5.3 12.8 5.3h.6c3.9 0 7.4-1.2 10.5-3.5s5.3-5.2 6.5-8.7c1.3-4.2 4.1-6.2 8.3-6.2zm94.6-78.1c1.2 3.6 1.8 7.2 1.8 10.9v94c0 2.4-.9 4.5-2.6 6.3-1.7 1.7-3.8 2.5-6.2 2.5s-4.5-.8-6.2-2.5c-1.7-1.8-2.5-3.8-2.5-6.3V150h-36.5v56.3c0 2.4-.8 4.5-2.5 6.3-1.8 1.7-3.8 2.5-6.2 2.5s-4.5-.8-6.3-2.5c-1.7-1.8-2.5-3.8-2.5-6.3v-94c0-3.7.6-7.3 1.7-10.9.2-.6.2-.8.1-.5 3.9-11.5 11.6-19 23.1-22.5.1 0 .2 0 .3-.1.9-.2 1.9-.5 2.9-.8h.3c.2-.1.3-.1.4-.1.9-.2 1.8-.3 2.7-.5l.7-.1c1.3-.1 2.4-.1 3.4-.1h.7c1 0 2.1 0 3.3.1l.8.1c.9.1 1.8.3 2.7.5.1 0 .2 0 .3.1h.4c1 .3 2 .5 2.9.8.1.1.1.1.2.1 11.5 3.6 19.2 11.1 23.1 22.5.1.1.1.2.1.3v.2h-.4zm-15.8 31v-20.1c0-2.4-.5-4.7-1.4-6.9l-.1-.2c-.7-1.6-1.6-3-2.6-4.3.1.1 0 0-.2-.3-.6-.6-1.2-1.3-1.9-1.9-.3-.2-.4-.3-.6-.5l-1.1-.8c-.4-.2-.8-.5-1.2-.8-.4-.2-.8-.4-1.3-.7-.4-.2-.9-.4-1.3-.6-.5-.2-.8-.3-.8-.3l-2.2-.6c-.1 0-.4 0-.8-.1-.9-.1-1.7-.2-2.3-.2h-.8c-.7 0-1.5.1-2.3.2-.4.1-.6.1-.8.1-.8.1-1.5.3-2.2.6l-.9.3-1.2.6c-.6.3-1 .5-1.3.7-.5.3-.9.5-1.2.8-.4.3-.8.5-1.1.8-.1 0-.3.2-.6.5-.7.6-1.3 1.3-1.9 1.9-.1.1-.1.1-.1.2-.1.1-.1.1-.2.1-1.1 1.3-1.9 2.8-2.5 4.3 0-.1 0 0-.1.2-.9 2.2-1.4 4.5-1.4 6.9v20.1h36.4zm115.9 74.3c0 .4 0 .7-.1 1v.2c-.6 2.8-2.1 4.9-4.6 6.1-2.2 1.1-4.4 1.3-6.7.6-2.3-.8-4-2.2-5.2-4.3l-43.5-87.5v83.5c0 2.4-.8 4.5-2.5 6.2-1.8 1.8-3.8 2.6-6.2 2.6s-4.5-.9-6.3-2.6c-1.7-1.7-2.5-3.8-2.5-6.2V85.5c0-2.4.8-4.5 2.5-6.2 1.8-1.8 3.8-2.6 6.3-2.6 2.8 0 5 1.1 6.9 3.4v.1c.2.3.5.6.7 1 .1 0 .1 0 .2.1 0 .1 0 .2.1.2L546 169V85.5c0-2.4.8-4.5 2.5-6.2 1.7-1.8 3.8-2.6 6.2-2.6s4.5.9 6.2 2.6c1.8 1.7 2.6 3.8 2.6 6.2v120.4s-.2.3-.3.8zm90.6-105.3c1.2 3.6 1.8 7.2 1.8 10.9v94c0 2.4-.9 4.5-2.6 6.3-1.7 1.7-3.8 2.5-6.2 2.5s-4.5-.8-6.2-2.5c-1.7-1.8-2.5-3.8-2.5-6.3V150h-36.5v56.3c0 2.4-.8 4.5-2.5 6.3-1.8 1.7-3.8 2.5-6.2 2.5s-4.5-.8-6.3-2.5c-1.7-1.8-2.5-3.8-2.5-6.3v-94c0-3.7.6-7.3 1.7-10.9.2-.6.2-.8.1-.5 3.9-11.5 11.6-19 23.1-22.5.1 0 .2 0 .3-.1.9-.2 1.9-.5 2.9-.8h.3c.2-.1.3-.1.4-.1.9-.2 1.8-.3 2.7-.5l.7-.1c1.3-.1 2.4-.1 3.4-.1h.7c1 0 2.1 0 3.3.1l.8.1c.9.1 1.8.3 2.7.5.1 0 .2 0 .3.1h.4c1 .3 2 .5 2.9.8.1.1.1.1.2.1 11.5 3.6 19.2 11.1 23.1 22.5.1.1.1.2.1.3v.2h-.4zm-15.7 31v-20.1c0-2.4-.5-4.7-1.4-6.9l-.1-.2c-.7-1.6-1.6-3-2.6-4.3.1.1 0 0-.2-.3-.6-.6-1.2-1.3-1.9-1.9-.3-.2-.4-.3-.6-.5l-1.1-.8c-.4-.2-.8-.5-1.2-.8-.4-.2-.8-.4-1.3-.7-.4-.2-.9-.4-1.3-.6-.5-.2-.8-.3-.8-.3l-2.2-.6c-.1 0-.4 0-.8-.1-.9-.1-1.7-.2-2.3-.2h-.8c-.7 0-1.5.1-2.3.2-.4.1-.6.1-.8.1-.8.1-1.5.3-2.2.6l-.9.3-1.2.6c-.6.3-1 .5-1.3.7-.5.3-.9.5-1.2.8-.4.3-.8.5-1.1.8-.1 0-.3.2-.6.5-.7.6-1.3 1.3-1.9 1.9-.1.1-.1.1-.1.2-.1.1-.1.1-.2.1-1.1 1.3-1.9 2.8-2.5 4.3 0-.1 0 0-.1.2-.9 2.2-1.4 4.5-1.4 6.9v20.1h36.4zm100.1-55.6c2.4 0 4.5.8 6.2 2.5s2.5 3.8 2.5 6.2v120.7c0 2.4-.8 4.5-2.5 6.3-1.7 1.7-3.8 2.5-6.2 2.5s-4.5-.8-6.2-2.5c-1.8-1.8-2.6-3.8-2.6-6.3v-56.3h-35.6v56.3c0 2.4-.8 4.5-2.5 6.3-1.8 1.7-3.8 2.5-6.2 2.5s-4.5-.8-6.3-2.5c-1.7-1.8-2.5-3.8-2.5-6.3V85.5c0-2.4.8-4.5 2.5-6.2 1.8-1.7 3.8-2.5 6.3-2.5 2.4 0 4.4.8 6.2 2.5 1.7 1.7 2.5 3.8 2.5 6.2v46.9h35.6V85.6c0-2.4.9-4.5 2.6-6.2s3.8-2.6 6.2-2.6zm38.3 126.6c-7.8-7.8-11.7-17.1-11.7-28.2v-58.6c0-11 3.9-20.3 11.7-28.2 7.8-7.8 17.1-11.6 28.2-11.6 11 0 20.4 3.9 28.2 11.6 7.8 7.8 11.7 17.2 11.7 28.2v58.6c0 11-3.9 20.4-11.7 28.2s-17.1 11.7-28.2 11.7c-11 0-20.4-3.9-28.2-11.7zm12.4-102.6c-4.4 4.4-6.6 9.6-6.6 15.8v58.6c0 6.1 2.2 11.4 6.6 15.8 4.3 4.4 9.6 6.6 15.8 6.6 6.1 0 11.4-2.2 15.8-6.6s6.6-9.6 6.6-15.8v-58.6c0-6.1-2.2-11.4-6.6-15.8-4.4-4.3-9.6-6.5-15.8-6.5-6.2.1-11.5 2.2-15.8 6.5z" fill="#010202"/><path d="M955.6 177.6c.7 2.3 1.1 4.7 1.1 7.2 0 14-14.7 25.3-30.1 25.3-1.5 0-3-.1-4.5-.3-5.2 3.4-11.6 5.4-18.6 5.4-17.6 0-31.8-12.9-31.8-28.9 0-3.4.7-6.7 1.8-9.7-5.7-4.7-9.3-11.5-9.3-19.1 0-12.6 9.9-23.1 23.1-25.4 6.6-6.4 16-10.3 26.5-10.3 18.4 0 35.8 12.4 38.3 28.5 4.8 3.7 7.8 9.2 7.8 15.3.3 4.4-1.4 8.6-4.3 12z" fill="#35ab4f"/><path d="M907.1 181.5c1.1 0 2 .5 2.6 1.4.7.9.8 1.8.5 2.9-.9 2.6-2.5 4.8-4.7 6.4-2.3 1.7-4.9 2.5-7.7 2.5h-.2c-3.6 0-6.8-1.3-9.3-3.9-2.6-2.6-3.9-5.7-3.9-9.3v-25c0-3.6 1.3-6.7 3.9-9.3s5.7-3.9 9.3-3.9h.2c2.9 0 5.4.8 7.7 2.5s3.9 3.8 4.7 6.5c.3 1 .2 2-.5 2.9s-1.6 1.3-2.6 1.3c-1.6 0-2.6-.7-3.1-2.1-.4-1.3-1.2-2.4-2.4-3.3-1.2-.8-2.5-1.3-3.9-1.3h-.2c-1.9 0-3.4.7-4.7 2s-2 2.9-2 4.7v25c0 1.9.7 3.4 2 4.7s2.9 2 4.7 2h.2a6.31 6.31 0 0 0 3.9-1.3c1.2-.8 2-1.9 2.4-3.2.6-1.5 1.6-2.2 3.1-2.2zm35.2-29c.4 1.3.7 2.7.7 4v34.9c0 .9-.3 1.7-1 2.3-.6.6-1.4.9-2.3.9s-1.7-.3-2.3-.9c-.6-.7-.9-1.4-.9-2.3v-20.9h-13.6v20.9c0 .9-.3 1.7-.9 2.3-.7.6-1.4.9-2.3.9s-1.7-.3-2.3-.9c-.6-.7-.9-1.4-.9-2.3v-34.9c0-1.4.2-2.7.6-4 .1-.2.1-.3 0-.2 1.4-4.3 4.3-7 8.6-8.4h.1c.3-.1.7-.2 1.1-.3h.2c.3-.1.7-.1 1-.2h3.2c.3 0 .7.1 1 .2h.2c.4.1.7.2 1.1.3h.1c4.3 1.3 7.1 4.1 8.6 8.4v.2zm-5.9 11.5v-7.5c0-.9-.2-1.7-.5-2.5v-.1c-.3-.6-.6-1.1-1-1.6l-.1-.1c-.2-.2-.4-.5-.7-.7-.1-.1-.2-.1-.2-.2-.1-.1-.3-.2-.4-.3s-.3-.2-.5-.3c-.1-.1-.3-.2-.5-.2-.2-.1-.3-.1-.5-.2s-.3-.1-.3-.1c-.3-.1-.5-.2-.8-.2h-.3c-.3 0-.6-.1-.9-.1h-.3c-.3 0-.5 0-.9.1h-.3c-.3 0-.5.1-.8.2l-.3.1c-.2.1-.3.1-.5.2s-.4.2-.5.2c-.2.1-.3.2-.5.3-.1.1-.3.2-.4.3l-.2.2c-.3.2-.5.5-.7.7v.1h-.1c-.4.5-.7 1-.9 1.6v.1c-.3.8-.5 1.7-.5 2.5v7.5h13.6z" fill="#fff"/><circle cx="862.7" cy="205.2" r="9.6" fill="#35ab4f"/></svg>